name analog
datacolumns 19
datarows 23
range 0.2985 0.3095
endheader
time	ground_force_vx	ground_force_vy	ground_force_vz	ground_force_px	ground_force_py	ground_force_pz	l_ground_force_vx	l_ground_force_vy	l_ground_force_vz	l_ground_force_px	l_ground_force_py	l_ground_force_pz	ground_torque_x	ground_torque_y	ground_torque_z	l_ground_torque_x	l_ground_torque_y	l_ground_torque_z
0.2985	-0.0	-0.0	-0.0	-0.0	-0.0	-0.0	-0.0879148915410041	2.8262939453125	-513.4196166992188	-0.0	-0.0	-0.0	-0.0	-0.0	-0.0	172711.671875	-31490.798828125	-1008.1881103515624
0.299	-0.0	-0.0	-0.0	-0.0	-0.0	-0.0	0.222243845462799	2.2498788833618164	-512.3744506835938	-0.0	-0.0	-0.0	-0.0	-0.0	-0.0	171916.5625	-31124.22265625	-740.8714599609375
0.2995	-0.0	-0.0	-0.0	-0.0	-0.0	-0.0	0.7545678019523621	1.7674814462661743	-511.8521423339844	-0.0	-0.0	-0.0	-0.0	-0.0	-0.0	171089.203125	-30777.26953125	-666.2793579101562
0.3	-0.0	-0.0	-0.0	-0.0	-0.0	-0.0	-0.0413387864828109	0.7513350248336792	-510.4644470214844	-0.0	-0.0	-0.0	-0.0	-0.0	-0.0	170743.421875	-30528.599609375	-577.6820678710938
0.3005	-0.0	-0.0	-0.0	-0.0	-0.0	-0.0	-0.3548431396484375	0.0922799408435821	-510.6368408203125	-0.0	-0.0	-0.0	-0.0	-0.0	-0.0	170846.859375	-30634.376953125	-815.3253173828125
0.301	-0.0	-0.0	-0.0	-0.0	-0.0	-0.0	-0.6675502061843872	0.0883216857910156	-512.3770751953125	-0.0	-0.0	-0.0	-0.0	-0.0	-0.0	170219.453125	-30357.50390625	-845.630126953125
0.3015	-0.0	-0.0	-0.0	-0.0	-0.0	-0.0	-0.7113037109375	0.1316773444414138	-511.7039489746094	-0.0	-0.0	-0.0	-0.0	-0.0	-0.0	169885.078125	-30360.9296875	-875.83203125
0.302	-0.0	-0.0	-0.0	-0.0	-0.0	-0.0	-0.0904470160603523	0.1783719956874847	-509.2273864746094	-0.0	-0.0	-0.0	-0.0	-0.0	-0.0	169291.484375	-29890.25	-609.002685546875
0.3025	-0.0	-0.0	-0.0	-0.0	-0.0	-0.0	0.5303741693496704	-0.4829458594322204	-509.0556335449219	-0.0	-0.0	-0.0	-0.0	-0.0	-0.0	168504.921875	-29684.962890625	-355.08172607421875
0.303	-0.0	-0.0	-0.0	-0.0	-0.0	-0.0	0.8457950353622437	-1.2796547412872314	-507.4958801269531	-0.0	-0.0	-0.0	-0.0	-0.0	-0.0	167625.40625	-29404.2421875	-120.41447448730467
0.3035	-0.0	-0.0	-0.0	-0.0	-0.0	-0.0	0.7486740350723267	-1.5402854681015017	-506.45709228515625	-0.0	-0.0	-0.0	-0.0	-0.0	-0.0	166906.8125	-29178.5546875	14.61426830291748
0.304	-0.0	-0.0	-0.0	-0.0	-0.0	-0.0	0.6278796195983887	-2.6496505737304688	-506.09075927734375	-0.0	-0.0	-0.0	-0.0	-0.0	-0.0	166312.8125	-28979.509765625	-181.28895568847656
0.3045	-0.0	-0.0	-0.0	-0.0	-0.0	-0.0	0.2181471139192581	-2.955162525177002	-503.99560546875	-0.0	-0.0	-0.0	-0.0	-0.0	-0.0	165992.953125	-28568.7109375	-240.33534240722656
0.305	-0.0	-0.0	-0.0	-0.0	-0.0	-0.0	-0.1774215698242187	-3.535430431365967	-504.50384521484375	-0.0	-0.0	-0.0	-0.0	-0.0	-0.0	165465.171875	-28214.919921875	-531.53369140625
0.3055	-0.0	-0.0	-0.0	-0.0	-0.0	-0.0	-0.752685546875	-3.709510803222656	-502.7996826171875	-0.0	-0.0	-0.0	-0.0	-0.0	-0.0	165017.484375	-27900.0859375	-801.4996948242188
0.306	-0.0	-0.0	-0.0	-0.0	-0.0	-0.0	-1.290552854537964	-4.27655553817749	-501.5395812988281	-0.0	-0.0	-0.0	-0.0	-0.0	-0.0	164613.828125	-27429.419921875	-963.71875
0.3065	-0.0	-0.0	-0.0	-0.0	-0.0	-0.0	-1.590823531150818	-4.851748466491699	-500.4912109375	-0.0	-0.0	-0.0	-0.0	-0.0	-0.0	164050.796875	-26982.818359375	-1142.931884765625
0.307	-0.0	-0.0	-0.0	-0.0	-0.0	-0.0	-1.9150415658950808	-5.214069843292236	-501.5502014160156	-0.0	-0.0	-0.0	-0.0	-0.0	-0.0	164235.53125	-26972.451171875	-1158.5460205078125
0.3075	-0.0	-0.0	-0.0	-0.0	-0.0	-0.0	-1.86616849899292	-5.564266204833984	-501.8480224609375	-0.0	-0.0	-0.0	-0.0	-0.0	-0.0	163954.40625	-26650.87890625	-1098.141845703125
0.308	-0.0	-0.0	-0.0	-0.0	-0.0	-0.0	-1.3306617736816406	-5.462418556213379	-502.5970764160156	-0.0	-0.0	-0.0	-0.0	-0.0	-0.0	164279.203125	-26595.484375	-1099.9033203125
0.3085	-0.0	-0.0	-0.0	-0.0	-0.0	-0.0	-1.2845487594604492	-5.3522114753723145	-503.0998229980469	-0.0	-0.0	-0.0	-0.0	-0.0	-0.0	164606.046875	-26669.923828125	-1246.9871826171875
0.309	-0.0	-0.0	-0.0	-0.0	-0.0	-0.0	-1.103380560874939	-5.210979461669922	-503.8547058105469	-0.0	-0.0	-0.0	-0.0	-0.0	-0.0	165124.109375	-26489.859375	-1156.5518798828125
0.3095	-0.0	-0.0	-0.0	-0.0	-0.0	-0.0	-0.3586509227752685	-5.041918277740479	-503.84075927734375	-0.0	-0.0	-0.0	-0.0	-0.0	-0.0	165108.953125	-26360.220703125	-1039.777099609375
